<svg width="808" height="245" viewBox="0 0 808 245" fill="none" xmlns="http://www.w3.org/2000/svg">
<rect width="808" height="245" fill="#0D1117"/>
<path d="M0 0H86C159.608 122 144.916 172 226 245H0V0Z" fill="#428DFF" fill-opacity="0.56"/>
<path d="M0 0H117C200.053 122 163.511 172 255 245H0V0Z" fill="#2972E4" fill-opacity="0.56"/>
<path d="M0 0H65.5C129.5 122 126 172 196.5 245H0V0Z" fill="#539CFF" fill-opacity="0.56"/>
<path d="M808 245L722 245C648.392 123 663.084 73 582 1.3113e-06L808 1.3113e-06V245Z" fill="#428DFF" fill-opacity="0.56"/>
<path d="M808 245L691 245C607.947 123 644.489 73 553 1.3113e-06L808 1.3113e-06V245Z" fill="#2972E4" fill-opacity="0.56"/>
<path d="M808 245H742.5C678.5 123 682 73 611.5 1.3113e-06L808 1.3113e-06V245Z" fill="#539CFF" fill-opacity="0.56"/>
<path d="M437.3 44H367.7C362.895 44 359 47.8951 359 52.7V104.9C359 109.705 362.895 113.6 367.7 113.6H437.3C442.105 113.6 446 109.705 446 104.9V52.7C446 47.8951 442.105 44 437.3 44Z" stroke="#3F8AFF" stroke-width="8" stroke-linecap="round" stroke-linejoin="round"/>
<path d="M393.8 44V61.4" stroke="#3F8AFF" stroke-width="8" stroke-linecap="round" stroke-linejoin="round"/>
<path d="M359 61.4H446" stroke="#3F8AFF" stroke-width="8" stroke-linecap="round" stroke-linejoin="round"/>
<path d="M376.4 44V61.4" stroke="#3F8AFF" stroke-width="8" stroke-linecap="round" stroke-linejoin="round"/>
<path d="M360.2 165.432C350.792 165.432 343.304 158.328 343.304 148.68C343.304 139.032 350.792 131.928 360.2 131.928C369.608 131.928 377.096 139.032 377.096 148.68C377.096 158.328 369.608 165.432 360.2 165.432ZM360.2 159.432C366.152 159.432 370.184 154.776 370.184 148.68C370.184 142.584 366.152 137.928 360.2 137.928C354.248 137.928 350.216 142.584 350.216 148.68C350.216 154.776 354.248 159.432 360.2 159.432ZM391.972 165.432C385.732 165.432 381.7 162.456 379.732 158.568L385.204 155.4C386.644 157.752 388.516 159.48 391.828 159.48C394.612 159.48 396.388 158.088 396.388 156.168C396.388 153.864 394.564 153.048 391.492 151.704L389.812 150.984C384.964 148.92 381.748 146.328 381.748 140.856C381.748 135.816 385.588 131.976 391.588 131.976C395.86 131.976 398.932 133.464 401.14 137.352L395.908 140.712C394.756 138.648 393.508 137.832 391.588 137.832C389.62 137.832 388.372 139.08 388.372 140.712C388.372 142.728 389.62 143.544 392.5 144.792L394.18 145.512C399.892 147.96 403.108 150.456 403.108 156.072C403.108 162.12 398.356 165.432 391.972 165.432ZM424.954 165.432C414.298 165.432 407.242 158.328 407.242 148.68C407.242 139.032 414.058 131.976 423.898 131.976C429.226 131.976 433.066 133.416 435.754 136.488L431.194 141C429.562 139.32 427.69 138.024 423.898 138.024C417.994 138.024 414.154 142.584 414.154 148.68C414.154 154.776 418.09 159.432 424.954 159.432C427.066 159.432 429.658 159.048 431.338 158.232V153.432H423.466V147.528H437.482V161.64C435.61 163.176 430.906 165.432 424.954 165.432ZM443.83 165V132.36H450.55V159.096H465.334V165H443.83Z" fill="white"/>
<path d="M329.958 186L333.247 178.454H333.379L336.8 186H335.183L334.831 185.153H331.795L331.443 186H329.958ZM332.312 183.866H334.281L333.742 182.568C333.522 182.04 333.291 181.226 333.291 181.226C333.291 181.226 333.071 182.04 332.851 182.568L332.312 183.866ZM340.581 186V182.546H339.8V181.314H340.581V179.741C340.581 178.531 341.153 177.915 342.308 177.915C342.968 177.915 343.408 178.113 343.749 178.509L342.946 179.499C342.836 179.367 342.704 179.246 342.473 179.246C342.231 179.246 342.066 179.378 342.066 179.719V181.314H343.331V182.546H342.066V186H340.581ZM346.896 183.217C346.874 182.678 346.61 182.436 346.115 182.436C345.554 182.436 345.257 182.678 345.048 182.865L344.223 181.985C344.663 181.556 345.158 181.215 346.258 181.215C347.457 181.215 348.37 181.864 348.37 183.338V186H346.896L346.929 185.351C346.577 185.89 346.17 186.099 345.543 186.099C344.685 186.099 343.893 185.714 343.893 184.625C343.893 183.624 344.652 183.217 345.807 183.217H346.896ZM346.896 184.097H345.884C345.51 184.097 345.345 184.262 345.345 184.526C345.345 184.79 345.565 184.944 345.983 184.944C346.588 184.944 346.896 184.68 346.896 184.284V184.097ZM351.299 186.099C350.21 186.099 349.572 185.692 349.165 185.208L350.034 184.438C350.353 184.746 350.76 184.933 351.2 184.933C351.684 184.933 351.838 184.845 351.838 184.647C351.838 184.394 351.541 184.394 350.782 184.196C350.144 184.031 349.429 183.679 349.429 182.7C349.429 181.644 350.243 181.215 351.244 181.215C352.014 181.215 352.564 181.468 352.949 181.864L352.157 182.711C351.937 182.524 351.607 182.359 351.255 182.359C350.914 182.359 350.749 182.447 350.749 182.634C350.749 182.898 351.046 182.931 351.684 183.074C352.366 183.228 353.224 183.547 353.224 184.537C353.224 185.395 352.773 186.099 351.299 186.099ZM356.054 186.121C355.108 186.121 354.426 185.648 354.426 184.24V182.546H353.733V181.314H354.426V178.872H355.9V181.314H357.099V182.546H355.9V184.284C355.9 184.757 356.054 184.856 356.285 184.856C356.527 184.856 356.703 184.724 356.802 184.658L357.363 185.692C357.132 185.879 356.736 186.121 356.054 186.121ZM358.218 187.265L358.636 185.945C358.306 185.791 358.086 185.505 358.086 185.109C358.086 184.592 358.515 184.207 359.021 184.207C359.516 184.207 359.945 184.592 359.945 185.131C359.945 185.494 359.78 185.769 359.615 186.066L358.966 187.265H358.218ZM364.749 184.108C364.892 184.592 365.288 184.867 365.959 184.867C366.498 184.867 366.905 184.658 367.136 184.493L367.983 185.406C367.532 185.802 366.96 186.099 365.981 186.099C364.309 186.099 363.231 185.087 363.231 183.646C363.231 182.227 364.364 181.215 365.816 181.215C367.499 181.215 368.412 182.469 368.302 184.108H364.749ZM364.727 183.25H366.806C366.74 182.733 366.41 182.425 365.827 182.425C365.244 182.425 364.848 182.689 364.727 183.25ZM376.831 180.533C376.325 180.533 375.885 180.148 375.885 179.598C375.885 179.059 376.325 178.674 376.831 178.674C377.337 178.674 377.766 179.059 377.766 179.598C377.766 180.148 377.337 180.533 376.831 180.533ZM369.747 186V182.546H368.966V181.314H369.747V179.961C369.747 178.751 370.33 178.135 371.419 178.135C371.947 178.135 372.31 178.289 372.64 178.575L372.024 179.642C371.947 179.554 371.815 179.466 371.617 179.466C371.386 179.466 371.232 179.609 371.232 179.939V181.314H372.915V179.741C372.915 178.531 373.498 177.915 374.642 177.915C375.225 177.915 375.555 178.069 375.874 178.344L375.181 179.389C375.093 179.312 374.961 179.246 374.785 179.246C374.554 179.246 374.4 179.389 374.4 179.719V181.314H377.568V186H376.083V182.546H374.4V186H372.915V182.546H371.232V186H369.747ZM381.188 186.099C379.725 186.099 378.625 185.087 378.625 183.646C378.625 182.227 379.725 181.215 381.188 181.215C382.123 181.215 382.684 181.556 383.157 182.15L382.101 183.008C381.925 182.722 381.562 182.513 381.188 182.513C380.517 182.513 380.143 182.986 380.143 183.646C380.143 184.328 380.517 184.812 381.188 184.812C381.661 184.812 381.914 184.592 382.134 184.372L383.135 185.252C382.673 185.769 382.123 186.099 381.188 186.099ZM384.835 180.533C384.329 180.533 383.889 180.148 383.889 179.598C383.889 179.059 384.329 178.674 384.835 178.674C385.341 178.674 385.77 179.059 385.77 179.598C385.77 180.148 385.341 180.533 384.835 180.533ZM384.087 186V181.314H385.572V186H384.087ZM388.145 184.108C388.288 184.592 388.684 184.867 389.355 184.867C389.894 184.867 390.301 184.658 390.532 184.493L391.379 185.406C390.928 185.802 390.356 186.099 389.377 186.099C387.705 186.099 386.627 185.087 386.627 183.646C386.627 182.227 387.76 181.215 389.212 181.215C390.895 181.215 391.808 182.469 391.698 184.108H388.145ZM388.123 183.25H390.202C390.136 182.733 389.806 182.425 389.223 182.425C388.64 182.425 388.244 182.689 388.123 183.25ZM392.711 186V181.314H394.196L394.163 182.084C394.449 181.523 394.999 181.215 395.648 181.215C396.671 181.215 397.408 181.963 397.408 183.294V186H395.923V183.393C395.923 182.865 395.67 182.568 395.142 182.568C394.548 182.568 394.196 182.898 394.196 183.492V186H392.711ZM400.57 186.121C399.624 186.121 398.942 185.648 398.942 184.24V182.546H398.249V181.314H398.942V178.872H400.416V181.314H401.615V182.546H400.416V184.284C400.416 184.757 400.57 184.856 400.801 184.856C401.043 184.856 401.219 184.724 401.318 184.658L401.879 185.692C401.648 185.879 401.252 186.121 400.57 186.121ZM402.734 187.265L403.152 185.945C402.822 185.791 402.602 185.505 402.602 185.109C402.602 184.592 403.031 184.207 403.537 184.207C404.032 184.207 404.461 184.592 404.461 185.131C404.461 185.494 404.296 185.769 404.131 186.066L403.482 187.265H402.734ZM408.11 186V178.52H413.06V179.873H409.65V182.249H412.653V183.569H409.65V184.647H413.214V186H408.11ZM416.197 186.099C415.053 186.099 414.074 185.087 414.074 183.646C414.074 182.205 415.042 181.215 416.175 181.215C416.923 181.215 417.341 181.512 417.638 181.974V178.058H419.123V186H417.638L417.671 185.318C417.407 185.813 416.912 186.099 416.197 186.099ZM416.626 184.801C417.264 184.801 417.682 184.383 417.682 183.646C417.682 182.953 417.264 182.524 416.626 182.524C415.999 182.524 415.603 182.953 415.603 183.646C415.603 184.383 415.999 184.801 416.626 184.801ZM421.09 180.533C420.584 180.533 420.144 180.148 420.144 179.598C420.144 179.059 420.584 178.674 421.09 178.674C421.596 178.674 422.025 179.059 422.025 179.598C422.025 180.148 421.596 180.533 421.09 180.533ZM420.342 186V181.314H421.827V186H420.342ZM425.126 186.121C424.18 186.121 423.498 185.648 423.498 184.24V182.546H422.805V181.314H423.498V178.872H424.972V181.314H426.171V182.546H424.972V184.284C424.972 184.757 425.126 184.856 425.357 184.856C425.599 184.856 425.775 184.724 425.874 184.658L426.435 185.692C426.204 185.879 425.808 186.121 425.126 186.121ZM430.116 183.217C430.094 182.678 429.83 182.436 429.335 182.436C428.774 182.436 428.477 182.678 428.268 182.865L427.443 181.985C427.883 181.556 428.378 181.215 429.478 181.215C430.677 181.215 431.59 181.864 431.59 183.338V186H430.116L430.149 185.351C429.797 185.89 429.39 186.099 428.763 186.099C427.905 186.099 427.113 185.714 427.113 184.625C427.113 183.624 427.872 183.217 429.027 183.217H430.116ZM430.116 184.097H429.104C428.73 184.097 428.565 184.262 428.565 184.526C428.565 184.79 428.785 184.944 429.203 184.944C429.808 184.944 430.116 184.68 430.116 184.284V184.097ZM435.652 186.099C434.937 186.099 434.442 185.813 434.178 185.318L434.211 186H432.726V178.058H434.211V181.974C434.519 181.512 434.97 181.215 435.685 181.215C436.829 181.215 437.775 182.205 437.775 183.646C437.775 185.087 436.796 186.099 435.652 186.099ZM435.223 184.801C435.85 184.801 436.246 184.383 436.246 183.646C436.246 182.953 435.85 182.524 435.223 182.524C434.585 182.524 434.167 182.953 434.167 183.646C434.167 184.383 434.585 184.801 435.223 184.801ZM438.818 186V178.058H440.292V186H438.818ZM442.845 184.108C442.988 184.592 443.384 184.867 444.055 184.867C444.594 184.867 445.001 184.658 445.232 184.493L446.079 185.406C445.628 185.802 445.056 186.099 444.077 186.099C442.405 186.099 441.327 185.087 441.327 183.646C441.327 182.227 442.46 181.215 443.912 181.215C445.595 181.215 446.508 182.469 446.398 184.108H442.845ZM442.823 183.25H444.902C444.836 182.733 444.506 182.425 443.923 182.425C443.34 182.425 442.944 182.689 442.823 183.25ZM447.642 186V178.52H449.182V186H447.642ZM450.569 186V181.314H452.054L452.021 182.04C452.351 181.468 452.791 181.215 453.352 181.215C453.957 181.215 454.386 181.468 454.672 182.018C455.057 181.534 455.574 181.215 456.267 181.215C457.444 181.215 458.126 181.996 458.126 183.283V186H456.652V183.415C456.652 182.865 456.476 182.568 455.915 182.568C455.343 182.568 455.09 182.854 455.09 183.492V186H453.616V183.415C453.616 182.865 453.451 182.568 452.89 182.568C452.318 182.568 452.054 182.854 452.054 183.492V186H450.569ZM462.02 183.217C461.998 182.678 461.734 182.436 461.239 182.436C460.678 182.436 460.381 182.678 460.172 182.865L459.347 181.985C459.787 181.556 460.282 181.215 461.382 181.215C462.581 181.215 463.494 181.864 463.494 183.338V186H462.02L462.053 185.351C461.701 185.89 461.294 186.099 460.667 186.099C459.809 186.099 459.017 185.714 459.017 184.625C459.017 183.624 459.776 183.217 460.931 183.217H462.02ZM462.02 184.097H461.008C460.634 184.097 460.469 184.262 460.469 184.526C460.469 184.79 460.689 184.944 461.107 184.944C461.712 184.944 462.02 184.68 462.02 184.284V184.097ZM467.435 181.303H469.239V182.359H468.546C468.656 182.524 468.711 182.722 468.711 182.931C468.711 183.932 467.941 184.669 466.742 184.669C466.368 184.669 466.049 184.614 465.785 184.482C465.708 184.548 465.664 184.647 465.664 184.768C465.664 184.988 465.807 185.131 466.148 185.142L467.303 185.197C468.579 185.263 469.305 185.791 469.305 186.704C469.305 187.694 468.579 188.442 466.72 188.442C465.037 188.442 464.201 187.793 464.201 186.902C464.201 186.396 464.531 186.066 465.059 185.868C464.674 185.659 464.498 185.351 464.498 184.922C464.498 184.504 464.729 184.185 465.147 183.998C464.883 183.712 464.729 183.338 464.729 182.931C464.729 181.93 465.543 181.215 466.742 181.215C466.995 181.215 467.226 181.248 467.435 181.303ZM466.72 183.591C467.171 183.591 467.413 183.327 467.413 182.931C467.413 182.557 467.171 182.304 466.72 182.304C466.269 182.304 466.027 182.557 466.027 182.931C466.027 183.327 466.269 183.591 466.72 183.591ZM465.774 186.352C465.686 186.451 465.642 186.572 465.642 186.715C465.642 187.089 465.906 187.331 466.72 187.331C467.589 187.331 467.787 187.1 467.787 186.814C467.787 186.55 467.611 186.462 467.006 186.429L465.774 186.352ZM471.29 184.108C471.433 184.592 471.829 184.867 472.5 184.867C473.039 184.867 473.446 184.658 473.677 184.493L474.524 185.406C474.073 185.802 473.501 186.099 472.522 186.099C470.85 186.099 469.772 185.087 469.772 183.646C469.772 182.227 470.905 181.215 472.357 181.215C474.04 181.215 474.953 182.469 474.843 184.108H471.29ZM471.268 183.25H473.347C473.281 182.733 472.951 182.425 472.368 182.425C471.785 182.425 471.389 182.689 471.268 183.25ZM336.558 192.303H338.362V193.359H337.669C337.779 193.524 337.834 193.722 337.834 193.931C337.834 194.932 337.064 195.669 335.865 195.669C335.491 195.669 335.172 195.614 334.908 195.482C334.831 195.548 334.787 195.647 334.787 195.768C334.787 195.988 334.93 196.131 335.271 196.142L336.426 196.197C337.702 196.263 338.428 196.791 338.428 197.704C338.428 198.694 337.702 199.442 335.843 199.442C334.16 199.442 333.324 198.793 333.324 197.902C333.324 197.396 333.654 197.066 334.182 196.868C333.797 196.659 333.621 196.351 333.621 195.922C333.621 195.504 333.852 195.185 334.27 194.998C334.006 194.712 333.852 194.338 333.852 193.931C333.852 192.93 334.666 192.215 335.865 192.215C336.118 192.215 336.349 192.248 336.558 192.303ZM335.843 194.591C336.294 194.591 336.536 194.327 336.536 193.931C336.536 193.557 336.294 193.304 335.843 193.304C335.392 193.304 335.15 193.557 335.15 193.931C335.15 194.327 335.392 194.591 335.843 194.591ZM334.897 197.352C334.809 197.451 334.765 197.572 334.765 197.715C334.765 198.089 335.029 198.331 335.843 198.331C336.712 198.331 336.91 198.1 336.91 197.814C336.91 197.55 336.734 197.462 336.129 197.429L334.897 197.352ZM339.274 197V192.314H340.759L340.737 193.161C341.078 192.391 341.628 192.215 342.112 192.215C342.42 192.215 342.651 192.303 342.838 192.402L342.365 193.755C342.178 193.667 342.002 193.612 341.793 193.612C341.122 193.612 340.759 193.92 340.759 194.921V197H339.274ZM346.128 194.217C346.106 193.678 345.842 193.436 345.347 193.436C344.786 193.436 344.489 193.678 344.28 193.865L343.455 192.985C343.895 192.556 344.39 192.215 345.49 192.215C346.689 192.215 347.602 192.864 347.602 194.338V197H346.128L346.161 196.351C345.809 196.89 345.402 197.099 344.775 197.099C343.917 197.099 343.125 196.714 343.125 195.625C343.125 194.624 343.884 194.217 345.039 194.217H346.128ZM346.128 195.097H345.116C344.742 195.097 344.577 195.262 344.577 195.526C344.577 195.79 344.797 195.944 345.215 195.944C345.82 195.944 346.128 195.68 346.128 195.284V195.097ZM348.738 199.332V192.314H350.223L350.19 193.04C350.476 192.534 350.971 192.215 351.697 192.215C352.83 192.215 353.787 193.205 353.787 194.646C353.787 196.087 352.808 197.099 351.664 197.099C350.949 197.099 350.465 196.802 350.223 196.373V199.332H348.738ZM351.235 195.801C351.862 195.801 352.258 195.383 352.258 194.646C352.258 193.953 351.862 193.524 351.235 193.524C350.597 193.524 350.179 193.953 350.179 194.646C350.179 195.383 350.597 195.801 351.235 195.801ZM354.797 197V189.058H356.282V193.051C356.568 192.512 357.085 192.215 357.734 192.215C358.757 192.215 359.494 192.963 359.494 194.294V197H358.009V194.393C358.009 193.865 357.756 193.568 357.228 193.568C356.634 193.568 356.282 193.898 356.282 194.492V197H354.797ZM361.433 191.533C360.927 191.533 360.487 191.148 360.487 190.598C360.487 190.059 360.927 189.674 361.433 189.674C361.939 189.674 362.368 190.059 362.368 190.598C362.368 191.148 361.939 191.533 361.433 191.533ZM360.685 197V192.314H362.17V197H360.685ZM365.789 197.099C364.326 197.099 363.226 196.087 363.226 194.646C363.226 193.227 364.326 192.215 365.789 192.215C366.724 192.215 367.285 192.556 367.758 193.15L366.702 194.008C366.526 193.722 366.163 193.513 365.789 193.513C365.118 193.513 364.744 193.986 364.744 194.646C364.744 195.328 365.118 195.812 365.789 195.812C366.262 195.812 366.515 195.592 366.735 195.372L367.736 196.252C367.274 196.769 366.724 197.099 365.789 197.099ZM371.394 194.217C371.372 193.678 371.108 193.436 370.613 193.436C370.052 193.436 369.755 193.678 369.546 193.865L368.721 192.985C369.161 192.556 369.656 192.215 370.756 192.215C371.955 192.215 372.868 192.864 372.868 194.338V197H371.394L371.427 196.351C371.075 196.89 370.668 197.099 370.041 197.099C369.183 197.099 368.391 196.714 368.391 195.625C368.391 194.624 369.15 194.217 370.305 194.217H371.394ZM371.394 195.097H370.382C370.008 195.097 369.843 195.262 369.843 195.526C369.843 195.79 370.063 195.944 370.481 195.944C371.086 195.944 371.394 195.68 371.394 195.284V195.097ZM374.037 197V189.058H375.511V197H374.037ZM379.172 197V189.058H380.646V197H379.172ZM382.649 191.533C382.143 191.533 381.703 191.148 381.703 190.598C381.703 190.059 382.143 189.674 382.649 189.674C383.155 189.674 383.584 190.059 383.584 190.598C383.584 191.148 383.155 191.533 382.649 191.533ZM381.901 197V192.314H383.386V197H381.901ZM387.532 197.099C386.817 197.099 386.322 196.813 386.058 196.318L386.091 197H384.606V189.058H386.091V192.974C386.399 192.512 386.85 192.215 387.565 192.215C388.709 192.215 389.655 193.205 389.655 194.646C389.655 196.087 388.676 197.099 387.532 197.099ZM387.103 195.801C387.73 195.801 388.126 195.383 388.126 194.646C388.126 193.953 387.73 193.524 387.103 193.524C386.465 193.524 386.047 193.953 386.047 194.646C386.047 195.383 386.465 195.801 387.103 195.801ZM390.665 197V192.314H392.15L392.128 193.161C392.469 192.391 393.019 192.215 393.503 192.215C393.811 192.215 394.042 192.303 394.229 192.402L393.756 193.755C393.569 193.667 393.393 193.612 393.184 193.612C392.513 193.612 392.15 193.92 392.15 194.921V197H390.665ZM397.519 194.217C397.497 193.678 397.233 193.436 396.738 193.436C396.177 193.436 395.88 193.678 395.671 193.865L394.846 192.985C395.286 192.556 395.781 192.215 396.881 192.215C398.08 192.215 398.993 192.864 398.993 194.338V197H397.519L397.552 196.351C397.2 196.89 396.793 197.099 396.166 197.099C395.308 197.099 394.516 196.714 394.516 195.625C394.516 194.624 395.275 194.217 396.43 194.217H397.519ZM397.519 195.097H396.507C396.133 195.097 395.968 195.262 395.968 195.526C395.968 195.79 396.188 195.944 396.606 195.944C397.211 195.944 397.519 195.68 397.519 195.284V195.097ZM400.129 197V192.314H401.614L401.592 193.161C401.933 192.391 402.483 192.215 402.967 192.215C403.275 192.215 403.506 192.303 403.693 192.402L403.22 193.755C403.033 193.667 402.857 193.612 402.648 193.612C401.977 193.612 401.614 193.92 401.614 194.921V197H400.129ZM404.698 199.332L405.919 196.56L404.06 192.314H405.699L406.37 194.118C406.535 194.558 406.7 195.328 406.7 195.328C406.7 195.328 406.843 194.547 407.019 194.118L407.745 192.314H409.252L406.183 199.332H404.698ZM412.903 197V193.546H412.122V192.314H412.903V190.741C412.903 189.531 413.475 188.915 414.63 188.915C415.29 188.915 415.73 189.113 416.071 189.509L415.268 190.499C415.158 190.367 415.026 190.246 414.795 190.246C414.553 190.246 414.388 190.378 414.388 190.719V192.314H415.653V193.546H414.388V197H412.903ZM418.877 197.099C417.425 197.099 416.292 196.087 416.292 194.668C416.292 193.238 417.425 192.215 418.877 192.215C420.329 192.215 421.451 193.238 421.451 194.668C421.451 196.087 420.329 197.099 418.877 197.099ZM418.877 195.845C419.537 195.845 419.933 195.361 419.933 194.668C419.933 193.964 419.537 193.491 418.877 193.491C418.217 193.491 417.81 193.964 417.81 194.668C417.81 195.361 418.217 195.845 418.877 195.845ZM422.451 197V192.314H423.936L423.914 193.161C424.255 192.391 424.805 192.215 425.289 192.215C425.597 192.215 425.828 192.303 426.015 192.402L425.542 193.755C425.355 193.667 425.179 193.612 424.97 193.612C424.299 193.612 423.936 193.92 423.936 194.921V197H422.451ZM433.356 194.668L434.907 197H433.125L431.893 195.108C431.75 195.13 431.596 195.141 431.453 195.141H430.925V197H429.385V189.52H431.453C433.543 189.52 434.797 190.521 434.797 192.347C434.797 193.513 434.28 194.25 433.356 194.668ZM430.925 193.799H431.409C432.663 193.799 433.213 193.403 433.213 192.347C433.213 191.291 432.641 190.873 431.409 190.873H430.925V193.799ZM439.76 197.099C437.604 197.099 435.888 195.471 435.888 193.26C435.888 191.049 437.604 189.421 439.76 189.421C441.916 189.421 443.632 191.049 443.632 193.26C443.632 195.471 441.916 197.099 439.76 197.099ZM439.76 195.724C441.124 195.724 442.048 194.657 442.048 193.26C442.048 191.863 441.124 190.796 439.76 190.796C438.396 190.796 437.472 191.863 437.472 193.26C437.472 194.657 438.396 195.724 439.76 195.724ZM444.939 197V189.52H447.832C449.229 189.52 450.01 190.4 450.01 191.456C450.01 192.149 449.603 192.622 448.954 192.831C449.977 193.073 450.472 193.755 450.472 194.69C450.472 196.021 449.526 197 447.964 197H444.939ZM446.479 192.281H447.667C448.162 192.281 448.492 192.006 448.492 191.577C448.492 191.148 448.217 190.873 447.744 190.873H446.479V192.281ZM446.479 195.647H447.898C448.525 195.647 448.921 195.229 448.921 194.613C448.921 194.008 448.514 193.59 447.81 193.59H446.479V195.647ZM451.653 197V189.52H453.193V195.647H456.581V197H451.653ZM460.998 197.099C458.842 197.099 457.126 195.471 457.126 193.26C457.126 191.049 458.842 189.421 460.998 189.421C463.154 189.421 464.87 191.049 464.87 193.26C464.87 195.471 463.154 197.099 460.998 197.099ZM460.998 195.724C462.362 195.724 463.286 194.657 463.286 193.26C463.286 191.863 462.362 190.796 460.998 190.796C459.634 190.796 458.71 191.863 458.71 193.26C458.71 194.657 459.634 195.724 460.998 195.724ZM464.865 197L467.307 192.886L465.272 189.52H467.021L467.78 190.807C468 191.181 468.275 191.83 468.275 191.83C468.275 191.83 468.484 191.192 468.704 190.807L469.43 189.52H471.069L469.067 192.897L471.553 197H469.793L468.616 195.009C468.385 194.624 468.099 193.953 468.099 193.953C468.099 193.953 467.868 194.613 467.637 195.009L466.482 197H464.865Z" fill="white"/>
</svg>
