<svg width="808" height="245" viewBox="0 0 808 245" fill="none" xmlns="http://www.w3.org/2000/svg">
<path d="M0 0H86C159.608 122 144.916 172 226 245H0V0Z" fill="#428DFF" fill-opacity="0.56"/>
<path d="M0 0H117C200.053 122 163.511 172 255 245H0V0Z" fill="#2972E4" fill-opacity="0.56"/>
<path d="M0 0H65.5C129.5 122 126 172 196.5 245H0V0Z" fill="#539CFF" fill-opacity="0.56"/>
<path d="M808 245L722 245C648.392 123 663.084 73 582 1.3113e-06L808 1.3113e-06V245Z" fill="#428DFF" fill-opacity="0.56"/>
<path d="M808 245L691 245C607.947 123 644.489 73 553 1.3113e-06L808 1.3113e-06V245Z" fill="#2972E4" fill-opacity="0.56"/>
<path d="M808 245H742.5C678.5 123 682 73 611.5 1.3113e-06L808 1.3113e-06V245Z" fill="#539CFF" fill-opacity="0.56"/>
</svg>
